<svg xmlns="http://www.w3.org/2000/svg" width="24" height="16" viewBox="0 0 24 16">
  <path d="M2.34680374,5.36005051 L22.0100505,5.36005051 C22.3966498,5.36005051 22.7100505,5.67345118 22.7100505,6.06005051 C22.7100505,6.44664983 22.3966498,6.76005051 22.0100505,6.76005051 L2.43309524,6.76005051 L5.8618795,10.1888348 C6.13524651,10.4622018 6.13524651,10.9054173 5.8618795,11.1787843 C5.5885125,11.4521513 5.14529701,11.4521513 4.87193001,11.1787843 L0.205025253,6.5118795 C-0.0683417511,6.2385125 -0.0683417511,5.79529701 0.205025253,5.52193001 L4.87193001,0.855025253 C5.14529701,0.581658249 5.5885125,0.581658249 5.8618795,0.855025253 C6.13524651,1.12839226 6.13524651,1.57160774 5.8618795,1.84497475 L2.34680374,5.36005051 Z" transform="translate(1 2)"/>
</svg>
