<svg xmlns="http://www.w3.org/2000/svg" width="32" height="32" viewBox="0 0 32 32">
  <path d="M21.5,20 L2.5,20 C1.122,20 0,18.878 0,17.5 L0,4.5 C0,3.122 1.122,2 2.5,2 L6.289,2 L7.971,0.163 C8.065,0.059 8.199,0 8.339,0 L15.66,0 C15.8,0 15.934,0.059 16.029,0.163 L17.711,2 L21.5,2 C22.878,2 24,3.122 24,4.5 L24,17.5 C24,18.878 22.878,20 21.5,20 Z M2.5,3 C1.673,3 1,3.673 1,4.5 L1,17.5 C1,18.327 1.673,19 2.5,19 L21.5,19 C22.327,19 23,18.327 23,17.5 L23,4.5 C23,3.673 22.327,3 21.5,3 L17.491,3 C17.351,3 17.217,2.941 17.122,2.837 L15.44,1 L8.56,1 L6.878,2.837 C6.783,2.941 6.649,3 6.509,3 L2.5,3 Z M12,17 C8.691,17 6,14.309 6,11 C6,7.691 8.691,5 12,5 C15.309,5 18,7.691 18,11 C18,14.309 15.309,17 12,17 Z M12,6 C9.243,6 7,8.243 7,11 C7,13.757 9.243,16 12,16 C14.757,16 17,13.757 17,11 C17,8.243 14.757,6 12,6 Z" transform="translate(4 6)"/>
</svg>
