<?xml version="1.0" encoding="utf-8"?>
<!-- Generator: Adobe Illustrator 22.1.0, SVG Export Plug-In . SVG Version: 6.00 Build 0)  -->
<svg version="1.1" id="Layer_1" xmlns="http://www.w3.org/2000/svg" xmlns:xlink="http://www.w3.org/1999/xlink" x="0px" y="0px"
	 viewBox="0 0 16 16" enable-background="new 0 0 16 16" xml:space="preserve">
<title>Combined Shape</title>
<desc>Created with Sketch.</desc>
<g id="Close">
	<g transform="translate(247.000000, 7.000000)">
		<path id="Combined-Shape" d="M-240.1313782,1l-3.1112671-3.1112697c-0.3124084-0.3124194-0.3124084-0.8189516,0-1.1313708
			c0.3124237-0.3124194,0.8189545-0.3124197,1.1313782-0.0000002L-239-0.1313711l3.1112671-3.1112695
			c0.3124237-0.3124194,0.8189545-0.3124194,1.1313782,0c0.3124084,0.3124192,0.3124084,0.8189516,0,1.131371L-237.8686218,1
			l3.1112671,3.1112695c0.3124084,0.3124194,0.3124084,0.8189516,0,1.131371c-0.3124237,0.3124194-0.8189545,0.3124194-1.1313782,0
			L-239,2.131371l-3.1112671,3.11127c-0.3124237,0.3124194-0.8189545,0.3124189-1.1313782-0.0000005
			c-0.3124084-0.3124194-0.3124084-0.8189516,0-1.131371L-240.1313782,1z"/>
	</g>
</g>
</svg>
