<?xml version="1.0" encoding="utf-8"?>
<!-- Generator: Adobe Illustrator 22.0.1, SVG Export Plug-In . SVG Version: 6.00 Build 0)  -->
<svg version="1.1" id="Layer_1" xmlns="http://www.w3.org/2000/svg" xmlns:xlink="http://www.w3.org/1999/xlink" x="0px" y="0px"
	 viewBox="0 0 24 24" enable-background="new 0 0 24 24" xml:space="preserve">
<path d="M17.6568565,7.7573581l-9.899498,9.8994961c-0.3889084,0.3889084-1.0253038,0.3889084-1.4142122,0l-0.0000014-0.0000019
	c-0.3889079-0.3889065-0.3889084-1.0253029,0-1.4142113l9.8994961-9.899497
	c0.3889084-0.3889084,1.0253048-0.3889074,1.4142113,0.0000005l0.0000019,0.0000014
	C18.045763,6.7320547,18.045763,7.3684497,17.6568565,7.7573581z"/>
<path d="M16.2426414,17.6568565l-9.8994961-9.899498c-0.3889084-0.3889084-0.3889079-1.0253038,0-1.4142122l0.0000014-0.0000014
	c0.3889084-0.3889079,1.0253038-0.3889084,1.4142122,0l9.899498,9.8994961
	c0.3889065,0.3889084,0.3889065,1.0253048-0.0000019,1.4142113l-0.0000019,0.0000019
	C17.2679462,18.045763,16.6315498,18.045763,16.2426414,17.6568565z"/>
</svg>
