<?xml version="1.0" encoding="utf-8"?>
<svg version="1.1" id="Layer_1" xmlns="http://www.w3.org/2000/svg" xmlns:xlink="http://www.w3.org/1999/xlink" x="0px" y="0px"
	 viewBox="0 0 24 24" style="enable-background:new 0 0 24 24;" xml:space="preserve">
<path d="M12,4c-4.4,0-8,3.6-8,8c0,4.4,3.6,8,8,8c4.4,0,8-3.6,8-8C20,7.6,16.4,4,12,4z M5.5,12c0-3.6,2.9-6.5,6.5-6.5
	c1.5,0,2.9,0.5,4,1.4c0,0,0,0,0,0l-9,9c0,0,0,0,0,0C6.1,14.9,5.5,13.5,5.5,12z M12,18.5c-1.5,0-2.9-0.5-4-1.4c0,0,0,0,0,0l9-9
	c0,0,0,0,0,0c0.9,1.1,1.4,2.5,1.4,4C18.5,15.6,15.6,18.5,12,18.5z"/>
</svg>