<?xml version="1.0" encoding="utf-8"?>
<!-- Generator: Adobe Illustrator 19.0.0, SVG Export Plug-In . SVG Version: 6.00 Build 0)  -->
<svg version="1.1" id="Layer_1" xmlns="http://www.w3.org/2000/svg" xmlns:xlink="http://www.w3.org/1999/xlink" x="0px" y="0px"
	 viewBox="0 0 24 24" style="enable-background:new 0 0 24 24;" xml:space="preserve">
<path d="M22.3849068,10.7395191c-2.9376011-3.7122712-6.5180902-5.8960743-10.3843365-5.8960743
	c-3.8671951,0-7.448493,2.1848755-10.3864994,5.898798c-0.5813479,0.7348795-0.5813479,1.7806349,0,2.5155144
	c2.9380069,3.7139225,6.5193048,5.898798,10.3864994,5.898798c3.8662462,0,7.4467354-2.1838036,10.3843365-5.8960743
	C22.9676189,12.5241022,22.9676189,11.4758978,22.3849068,10.7395191z M12.0005703,16c-2.2091675,0-4-1.7908325-4-4s1.7908325-4,4-4
	s4,1.7908325,4,4S14.2097378,16,12.0005703,16z M14,12c0,1.1045694-0.8954306,2-2,2s-2-0.8954306-2-2s0.8954306-2,2-2
	S14,10.8954306,14,12z"/>
</svg>
