<?xml version="1.0" encoding="utf-8"?>
<svg version="1.1" id="Layer_1" xmlns="http://www.w3.org/2000/svg" xmlns:xlink="http://www.w3.org/1999/xlink" x="0px" y="0px"
	 viewBox="0 0 24 24" style="enable-background:new 0 0 24 24;" xml:space="preserve">
<path d="M9.4790039,12.0722656l-0.4956055-0.3828125c0.7495117-0.8251953,1.4335938-1.4125977,2.0522461-1.7617188
	s1.1459961-0.5234375,1.5795898-0.5234375c0.2402344,0,0.4238281,0.0527344,0.5507813,0.1577148
	s0.1914063,0.2475586,0.1914063,0.4277344c0,0.2177734-0.2421875,1.1411133-0.7304688,2.769043
	c-0.7924805,2.6650391-1.1889648,4.2714844-1.1889648,4.8193359c0,0.1044922,0.0258789,0.1933594,0.0786133,0.2646484
	c0.0522461,0.0712891,0.1088867,0.1064453,0.1689453,0.1064453c0.2402344,0,0.8554688-0.4648438,1.8457031-1.3964844
	l0.4394531,0.4287109c-1.0273438,0.9677734-1.7792969,1.5869141-2.2514648,1.8574219
	c-0.4726563,0.2695313-0.859375,0.4052734-1.159668,0.4052734c-0.2626953,0-0.4711914-0.0830078-0.6245117-0.2480469
	c-0.1542969-0.1650391-0.230957-0.3935547-0.230957-0.6865234c0-0.9384766,0.5629883-3.2314453,1.6884766-6.8789063
	c0.0527344-0.1728516,0.0791016-0.3271484,0.0791016-0.4614258c0-0.1503906-0.0678711-0.2250977-0.2026367-0.2250977
	c-0.1503906,0-0.3208008,0.0600586-0.512207,0.1801758C10.5654297,11.0449219,10.1391602,11.4277344,9.4790039,12.0722656z
	 M13.9042969,4.6196289c0.warning.svg2324219,0,0.4238281,0.0766602,0.5722656,0.2304688
	c0.1503906,0.1542969,0.2265625,0.3510742,0.2265625,0.5913086c0,0.3300781-0.1152344,0.6210938-0.34375,0.8725586
	S13.8730469,6.690918,13.5878906,6.690918c-0.2246094,0-0.4121094-0.0786133-0.5625-0.2363281
	s-0.2246094-0.3637695-0.2246094-0.6191406c0-0.3378906,0.1074219-0.625,0.3261719-0.8613281
	C13.34375,4.737793,13.6035156,4.6196289,13.9042969,4.6196289z"/>
</svg>