<?xml version="1.0" encoding="utf-8"?>
<!-- Generator: Adobe Illustrator 22.1.0, SVG Export Plug-In . SVG Version: 6.00 Build 0)  -->
<svg version="1.1" id="Layer_1" xmlns="http://www.w3.org/2000/svg" xmlns:xlink="http://www.w3.org/1999/xlink" x="0px" y="0px"
	 viewBox="0 0 178 90" style="enable-background:new 0 0 178 90;" xml:space="preserve">
<path class="st0" d="M176.5,51.2L176.5,51.2c-0.3-0.1-0.5-0.2-0.8-0.2c-0.7,0-1.3,0.4-1.6,1.1c-4,9.4-9.2,15-16.3,17.6l6.7-19.1
	c2.2-6.1,4.1-11,5.3-13.9l0.1-0.3c0.2-0.5,0.1-1.1-0.3-1.6c-0.4-0.5-0.9-0.8-1.5-0.8c-0.7,0-1.3,0.5-1.6,1.2c-1.5,4-2.5,6.7-3.2,8.5
	c-1.5,3.9-1.5,3.9-2.1,5.8c-2.6,7.6-7.2,15.7-11.1,15.7c-3,0-4.5-1.4-4.5-4.4c0-1.8,0.6-3.4,2-7.1c0-0.1,0.1-0.1,0.1-0.2
	c0-0.1,0-0.1,0.1-0.2c0,0,0-0.1,0-0.1c0.6-1.5,1.3-3.5,2.2-5.9l4-10.9c0.2-0.5,0.1-1.2-0.2-1.6c-0.3-0.5-0.9-0.7-1.5-0.7
	c-0.7,0-1.4,0.5-1.6,1.1l-4,10.9l-0.8,2.2c-0.7,1.9-1.4,3.5-1.9,5c-3.9,8.7-9,14-15.8,16.5c7.1-20.3,9.3-26.4,11.4-32h5.6
	c1,0,1.8-0.8,1.8-1.8c0-0.9-0.8-1.8-1.8-1.8H141c0.6-1.8,1.4-3.7,2-5.1c2.2-5.8,5.6-12.7,9.6-12.7c0.1,0,0.1,0,0.2,0
	c1,0,1.7,0.4,2.2,1.2c0.3,0.6,0.9,1,1.6,1c0.3,0,0.5-0.1,0.8-0.2c0.6-0.3,1-1,1-1.6c0-0.3-0.1-0.5-0.2-0.8c-1-2.1-3-3.2-5.4-3.2
	c-4.9,0-9.2,4.9-13,14.9l-2.5,6.5h-5.7c-1,0-1.8,0.8-1.8,1.8c0,1,0.8,1.8,1.8,1.8h4.3c-2,5.2-3.5,9.6-5.1,14.2c0,0,0,0.1-0.1,0.1
	l-0.1,0.1c-2.6,5.8-5.9,13-10.2,13c-1.4,0-1.9-0.8-1.9-2.8c0-2.8,1.1-5.9,6.4-20.8l1.9-5.2c0.3-0.7,0.1-1.2-0.1-1.5
	c-0.3-0.5-0.9-0.7-1.5-0.7c-0.7,0-1.4,0.5-1.6,1.2l-0.1,0.3c-1.8,4.7-4.2,10.8-5.9,16.2c0,0-0.1,0.1-0.1,0.2
	c-3.6,8-7,13.2-11.8,13.2c-1.3,0-2.1-1-2.1-2.8c0-2,0.9-5.4,3.9-13.7c0.9-2.6,1.7-4.7,2.3-6.4c0.9-2.4,1.4-4,1.7-4.8h5.7
	c1,0,1.8-0.8,1.8-1.8c0-1-0.8-1.8-1.8-1.8h-4.5c0.3-1,1.1-3.1,1.8-5c1-2.8,1.4-3.9,1.5-4.3l0,0l0,0c0,0,0,0,0,0l0,0
	c0.2-0.5,0.1-1.1-0.2-1.6c-0.3-0.5-0.9-0.8-1.5-0.8c-0.8,0-1.4,0.5-1.7,1.2c-0.1,0.4-3.2,9.3-3.7,10.5h-5.4c-1,0-1.8,0.8-1.8,1.8
	c0,1,0.8,1.8,1.8,1.8h4.2l-3.6,10c-0.6,1.4-1.1,2.9-1.5,4.2c-0.1,0.1-0.1,0.2-0.2,0.3l-0.1,0.2c-2.3,5.1-5.8,12.9-10,12.9
	c-1.1,0-1.9-0.5-1.9-2.8c0-2.8,1.9-8.2,4.2-14.4l0.8-2.2l3.6-9.6c0.2-0.5,0.2-1.1-0.2-1.6c-0.3-0.5-0.8-0.7-1.4-0.7
	c-0.8,0-1.4,0.4-1.7,1.1l-0.2,0.6c-0.2,0.6-0.5,1.3-0.8,2.1c-1.3-2.3-3.5-3.5-6.5-3.5c-5.4,0-9.5,6.1-11.4,9.7
	c-1.4,2.6-2.6,5.5-3.4,8.4c-4.2,9.4-6.9,12.9-10,12.9c-1.4,0-1.9-0.8-1.9-2.8c0-2.5,1.4-6.5,2.7-10.3c1.4-4,2.9-8.2,2.9-11
	c0-4.7-2.4-7-7-7c-2,0-3.9,0.9-6,2.7c2.5-6.9,3.9-11.1,4.3-12.3c0.2-0.5,0.1-1.1-0.2-1.6c-0.3-0.5-0.9-0.8-1.5-0.8
	c-0.8,0-1.4,0.4-1.7,1.1c-1.7,5.1-5.5,15.7-10.1,28.5c-0.1,0.1-0.1,0.2-0.2,0.3c-5.1,12.5-11.4,18.1-20.4,18.1
	c-7.1,0-11-4.1-11-11.5c0-4.1,1.3-8.8,3-14c1.1,0.1,1.9,0.2,3,0.2c12.8,0,26.6-7.4,26.6-19.3c0-6.2-3.5-10.2-9.2-10.3
	c-0.1,0-0.2,0-0.2,0c-4.6,0-9.2,2.9-13.6,8.5c-4.6,5.9-7.5,13.1-8.9,17c-6.3-1.4-9.7-5.3-9.7-11c0-4,1.9-8.9,4.4-11.7
	c0.4-0.4,0.4-0.9,0.4-1.2c0-1-0.8-1.8-1.8-1.8c-0.6,0-1,0.2-1.3,0.6c-3.3,4-5.2,9.3-5.2,14.2c0,7.2,4.4,12.3,12,14.2
	c-1.5,4.6-3,10-3,14.6c0,9.4,5.4,15,14.5,15c5.9,0,10.9-2.1,15.2-6.4c0.1,0.6,0.5,1.2,1.2,1.5c1,0.3,1.9-0.2,2.2-1.2
	c0.8-2.3,1.6-4.3,2.2-6.2c4.4-12.1,5.4-14.9,9.3-19.9c2.1-2.5,4-3.9,5.5-3.9c2.3,0,3.5,1.2,3.5,3.5c0,2.6-1.3,6-2.6,9.7
	c-1.5,4-3,8.2-3,11.7c0,3.9,2,6.3,5.4,6.3c3.5,0,6.2-2.2,8.8-6.3c0.5,3.9,2.7,6.3,6,6.3c3,0,6-1.9,8.8-5.6c0.2,3.5,2.2,5.6,5.4,5.6
	c3.2,0,5.8-2,7.9-4.9c0.5,3,2.5,4.9,5.5,4.9c3.8,0,6.8-1.9,9.4-5.3c0.1,1.5,0.7,2.8,1.6,3.8c1,1,2.3,1.5,3.8,1.5
	c1.9,0,3.5-0.7,5-1.8c-0.5,1.3-1,2.7-1.5,4.1c-1.6,0.4-3.4,0.8-5.5,1.1c-8.3,1.5-12.4,4.7-12.4,9.7c0,2.2,0.7,4,2,5.3
	c1.3,1.3,3.2,2,5.4,1.9c5.3-0.1,9.8-5.2,13.3-15.1c6.6-2,11.6-5.3,15.6-10.8c0.6,2.5,2.4,5.5,7.8,5.5c1.8,0,3.4-0.6,4.9-1.9
	l-1.4,4.2c-1.6,0.4-3.4,0.8-5.5,1.1c-8.3,1.5-12.4,4.7-12.4,9.7c0,2.2,0.7,4,2,5.3c1.3,1.3,3.1,1.9,5.2,1.9c0.1,0,0.1,0,0.2,0
	c5.3-0.1,9.8-5.2,13.3-15.1c9.9-2.9,16.2-9.1,21-20.4c0.1-0.2,0.2-0.5,0.2-0.7C177.6,52.1,177.2,51.5,176.5,51.2z M92.5,42.6
	l-1.7,4.6c-2.8,7.2-7.1,18-12.7,18c-1.8,0-2.6-1.5-2.6-5c0-1.8,0.5-4.2,1.2-6.7c0,0,0,0,0,0c0.1-0.2,0.1-0.3,0.1-0.5
	c2.2-7.1,6.6-15.2,11.3-15.3C90.7,37.7,92.3,39.6,92.5,42.6z M17.5,41.2c4-10.9,11.6-22.6,19.2-22.6c3.5,0,5.7,2.5,5.7,6.8
	c0,7.6-8.9,15.8-23.3,15.8C18.6,41.3,18,41.3,17.5,41.2z M122.7,74.9c-2.3,6.9-5.5,10.5-9.2,10.6c-1.1,0-2.1-0.3-2.8-1
	c-0.7-0.7-1.1-1.6-1.1-2.8c0.3-3.2,3-5,9.5-6.1c1.1-0.2,2.1-0.4,3.3-0.6L122.7,74.9z M152.3,74.9c-2.3,6.9-5.5,10.5-9.2,10.6h0
	c-1.1,0-2.1-0.3-2.8-1c-0.7-0.7-1.1-1.6-1.1-2.8c0.3-3.2,3-5,9.5-6.1c1.1-0.2,2.1-0.4,3.3-0.6L152.3,74.9z M125.4,28.3
	c0-1.5,1.2-2.7,2.8-2.7c1.5,0,2.7,1.2,2.7,2.7c0,1.5-1.2,2.7-2.7,2.7C126.6,31,125.4,29.8,125.4,28.3z"/>
</svg>
