<?xml version="1.0" encoding="utf-8"?>
<!-- Generator: Adobe Illustrator 22.0.1, SVG Export Plug-In . SVG Version: 6.00 Build 0)  -->
<svg version="1.1" id="Layer_1" xmlns="http://www.w3.org/2000/svg" xmlns:xlink="http://www.w3.org/1999/xlink" x="0px" y="0px"
	 viewBox="0 0 16 16" enable-background="new 0 0 16 16" xml:space="preserve">
<path d="M8.000001,9H7.999999C7.4499993,9,7,8.5500002,7,8.000001V7.999999C7,7.4499993,7.4499993,7,7.999999,7H8.000001
	C8.5500002,7,9,7.4499993,9,7.999999V8.000001C9,8.5500002,8.5500002,9,8.000001,9z"/>
<path d="M4.000001,9H3.999999C3.4499996,9,3,8.5500002,3,8.000001V7.999999C3,7.4499993,3.4499996,7,3.999999,7H4.000001
	C4.5500007,7,5,7.4499993,5,7.999999V8.000001C5,8.5500002,4.5500007,9,4.000001,9z"/>
<path d="M12.000001,9H11.999999C11.4499998,9,11,8.5500002,11,8.000001V7.999999C11,7.4499993,11.4499998,7,11.999999,7h0.0000019
	C12.5500002,7,13,7.4499993,13,7.999999V8.000001C13,8.5500002,12.5500002,9,12.000001,9z"/>
</svg>
